<svg id="Webgib" data-name="Слой 11" xmlns="http://www.w3.org/2000/svg" viewBox="0 0 279.34 304.74"><defs><style>.cls-1{fill:#704aff;}.cls-2{fill:#8a74fa;}.cls-3{fill:#b1b4f8;}</style></defs><path class="cls-1" d="M144,157c1.53,38.31,7.73,66.06,13,84,2.57,8.75,6.34,20,7,22,4,11.9,10.79,32.11,21,56,2.7,6.32,5.19,12.73,8,19,0,0,6.8,15.19,9,25,.22,1,.48,3,1,7,.33,2.52.43,3.64,0,5a8.7,8.7,0,0,1-3,4c-4.72,3.34-19-5.19-31-16a116.16,116.16,0,0,1-17-19c-15.52-22.51-22.18-46.73-25-60,0,0-8.37-39.4,2-88a149.77,149.77,0,0,1,7-23A124.78,124.78,0,0,1,144,157Z" transform="translate(-123.81 -74.99)"/><path class="cls-2" d="M234,75c-3.31-.8-22.05,42.35-27,92-5.34,53.6,7.56,93.09,11,103a221.16,221.16,0,0,0,17,37s24.53,42.76,60,58c3.94,1.69,8.91,3.26,12,1,4.07-3,2.93-11.16,2-16-5.22-27.13-27.85-74.35-31-81-19.06-40.18-28.08-77-33-97-2-8.17-3.25-14.19-4-18-3.46-17.57-7.53-38.3-7-65C234.2,78.81,234.93,75.22,234,75Z" transform="translate(-123.81 -74.99)"/><path class="cls-3" d="M344,129c-2.82-.42-35.09,76.7-10,149a168.09,168.09,0,0,0,34,57,59.16,59.16,0,0,0,18,14c4.74,2.36,11.47,5.71,15,3,2-1.5,2.44-4.49,2-10-1.08-13.38-6.14-23-11-34-2.91-6.57-5.25-13.37-8-20-6.15-14.81-13.44-32.34-19-49-4.63-13.87-8.42-31.58-16-67a204.63,204.63,0,0,1-4-25C343.76,133.81,344.69,129.1,344,129Z" transform="translate(-123.81 -74.99)"/></svg>